<svg xmlns="http://www.w3.org/2000/svg" viewBox="0 0 566.767 326.766">
  <defs>
    <style>
      .cls-1 {
        fill: #f8f6f6;
        stroke: #707070;
      }

      .cls-2 {
        fill: #3e3e3e;
      }

      .cls-3, .cls-5 {
        stroke: none;
      }

      .cls-4 {
        fill: none;
      }

      .cls-5 {
        fill: #707070;
      }
    </style>
  </defs>
  <g id="Symbol_9_1" data-name="Symbol 9 – 1" transform="translate(-407 -139.234)">
    <g id="Rectangle_10" data-name="Rectangle 10" class="cls-1" transform="translate(447 156)">
      <rect class="cls-3" width="507" height="294"/>
      <rect class="cls-4" x="0.5" y="0.5" width="506" height="293"/>
    </g>
    <g id="Subtraction_3" data-name="Subtraction 3" class="cls-2" transform="translate(2670 -824.766)">
      <path class="cls-3" d="M -1706.232666015625 1290.265625 L -2252.999755859375 1290.265625 C -2258.238037109375 1290.265625 -2262.499755859375 1286.004028320313 -2262.499755859375 1280.765747070313 L -2262.499755859375 973.9998168945313 C -2262.499755859375 968.7615966796875 -2258.238037109375 964.4999389648438 -2252.999755859375 964.4999389648438 L -1706.232666015625 964.4999389648438 C -1700.994384765625 964.4999389648438 -1696.732788085938 968.7615966796875 -1696.732788085938 973.9998168945313 L -1696.732788085938 1280.765747070313 C -1696.732788085938 1286.004028320313 -1700.994384765625 1290.265625 -1706.232666015625 1290.265625 Z M -2125.257080078125 1163.903686523438 L -2103.63623046875 1244.593505859375 L -2103.5068359375 1245.076416015625 L -2103.02392578125 1244.947021484375 L -2080.849853515625 1239.00537109375 L -2080.366943359375 1238.8759765625 L -2080.496337890625 1238.39306640625 L -2102.1171875 1157.703125 L -2038.540283203125 1140.66748046875 L -2016.91943359375 1221.358154296875 L -2016.7900390625 1221.841064453125 L -2016.30712890625 1221.711669921875 L -1994.132934570313 1215.77001953125 L -1780.706665039063 1158.583129882813 L -1780.223754882813 1158.453857421875 L -1780.353271484375 1157.970825195313 L -1786.295288085938 1135.796752929688 L -1786.424682617188 1135.313842773438 L -1786.907592773438 1135.443237304688 L -1999.849731445313 1192.50048828125 L -2015.52978515625 1133.985107421875 L -2021.470458984375 1111.810791015625 L -2049.162841796875 1008.462829589844 L -2049.292236328125 1007.979858398438 L -2049.775146484375 1008.109313964844 L -2071.94921875 1014.051086425781 L -2072.43212890625 1014.180480957031 L -2072.302734375 1014.663452148438 L -2044.740966796875 1117.527465820313 L -2108.31689453125 1134.56298828125 L -2135.879638671875 1031.698974609375 L -2136.009033203125 1031.216064453125 L -2136.491943359375 1031.345458984375 L -2158.666015625 1037.287353515625 L -2159.14892578125 1037.416625976563 L -2159.01953125 1037.899658203125 L -2131.456787109375 1140.763671875 L -2150.772216796875 1145.93896484375 L -2151.255126953125 1146.068359375 L -2151.125732421875 1146.55126953125 L -2145.184814453125 1168.7255859375 L -2145.055419921875 1169.20849609375 L -2144.572509765625 1169.0791015625 L -2125.257080078125 1163.903686523438 Z M -1943.89111328125 1083.268310546875 C -1946.933715820313 1083.268310546875 -1949.985961914063 1083.599243164063 -1952.963134765625 1084.251953125 C -1956.023315429688 1084.924072265625 -1959.024169921875 1085.940795898438 -1961.882690429688 1087.274291992188 C -1964.498168945313 1088.49365234375 -1966.991333007813 1089.9765625 -1969.29248046875 1091.681762695313 C -1971.533447265625 1093.342651367188 -1973.618408203125 1095.234130859375 -1975.489379882813 1097.303833007813 C -1977.326538085938 1099.335815429688 -1978.974365234375 1101.558471679688 -1980.38720703125 1103.910278320313 C -1981.7880859375 1106.240844726563 -1982.971557617188 1108.718505859375 -1983.904907226563 1111.274536132813 C -1984.837524414063 1113.828979492188 -1985.528442382813 1116.485717773438 -1985.958618164063 1119.170776367188 C -1986.391967773438 1121.878784179688 -1986.562377929688 1124.637817382813 -1986.464965820313 1127.371337890625 C -1986.36669921875 1130.152221679688 -1985.989135742188 1132.937377929688 -1985.3427734375 1135.649536132813 C -1984.679443359375 1138.430541992188 -1983.725708007813 1141.164428710938 -1982.5078125 1143.775634765625 C -1979.023803710938 1151.245483398438 -1973.501098632813 1157.489379882813 -1966.536865234375 1161.83203125 C -1963.176147460938 1163.927734375 -1959.538696289063 1165.545776367188 -1955.7255859375 1166.641235351563 C -1951.892333984375 1167.74169921875 -1947.933959960938 1168.299682617188 -1943.96044921875 1168.299682617188 C -1940.911865234375 1168.299682617188 -1937.859008789063 1167.968627929688 -1934.886474609375 1167.31591796875 C -1931.833862304688 1166.646728515625 -1928.832885742188 1165.630126953125 -1925.966796875 1164.294677734375 C -1923.346923828125 1163.072021484375 -1920.854125976563 1161.5888671875 -1918.557250976563 1159.88623046875 C -1916.313842773438 1158.223876953125 -1914.228881835938 1156.332641601563 -1912.3603515625 1154.264892578125 C -1910.523559570313 1152.23291015625 -1908.875366210938 1150.010009765625 -1907.461669921875 1147.65771484375 C -1906.06201171875 1145.329711914063 -1904.878662109375 1142.851928710938 -1903.944580078125 1140.293212890625 C -1903.011108398438 1137.736572265625 -1902.320190429688 1135.080078125 -1901.89111328125 1132.397827148438 C -1901.457885742188 1129.6904296875 -1901.287231445313 1126.93115234375 -1901.383911132813 1124.19677734375 C -1901.483154296875 1121.4140625 -1901.860961914063 1118.629150390625 -1902.506958007813 1115.919189453125 C -1903.1708984375 1113.136108398438 -1904.124755859375 1110.401733398438 -1905.342041015625 1107.7919921875 C -1908.824462890625 1100.32373046875 -1914.347045898438 1094.080322265625 -1921.312866210938 1089.736694335938 C -1924.67431640625 1087.640625 -1928.311767578125 1086.022583007813 -1932.124267578125 1084.927612304688 C -1935.956176757813 1083.826538085938 -1939.915161132813 1083.268310546875 -1943.89111328125 1083.268310546875 Z M -1848.820556640625 1042.786376953125 C -1852.4208984375 1042.786376953125 -1856.02880859375 1043.17724609375 -1859.5439453125 1043.948120117188 C -1863.157836914063 1044.74169921875 -1866.705078125 1045.943725585938 -1870.087280273438 1047.5205078125 C -1873.17919921875 1048.961791992188 -1876.126098632813 1050.714721679688 -1878.846069335938 1052.73046875 C -1881.49658203125 1054.695434570313 -1883.9609375 1056.930908203125 -1886.170654296875 1059.375122070313 C -1888.340087890625 1061.775512695313 -1890.287963867188 1064.402954101563 -1891.960327148438 1067.184692382813 C -1893.615966796875 1069.939575195313 -1895.014892578125 1072.868408203125 -1896.118041992188 1075.89013671875 C -1897.221801757813 1078.914794921875 -1898.038330078125 1082.0546875 -1898.545043945313 1085.222900390625 C -1899.057373046875 1088.420166015625 -1899.258911132813 1091.681640625 -1899.144165039063 1094.916381835938 C -1899.02783203125 1098.2060546875 -1898.58154296875 1101.497924804688 -1897.817749023438 1104.700439453125 C -1897.034545898438 1107.984252929688 -1895.906982421875 1111.216186523438 -1894.46630859375 1114.30615234375 C -1890.349243164063 1123.134643554688 -1883.821533203125 1130.514892578125 -1875.589111328125 1135.649291992188 C -1871.61669921875 1138.125732421875 -1867.317016601563 1140.038208007813 -1862.8095703125 1141.333374023438 C -1858.279052734375 1142.63427734375 -1853.600341796875 1143.2939453125 -1848.9033203125 1143.2939453125 C -1845.2998046875 1143.29296875 -1841.691162109375 1142.901733398438 -1838.17724609375 1142.131225585938 C -1834.565795898438 1141.3388671875 -1831.018676757813 1140.136840820313 -1827.634643554688 1138.558837890625 C -1824.542236328125 1137.1171875 -1821.595336914063 1135.364135742188 -1818.875854492188 1133.3486328125 C -1816.2255859375 1131.385009765625 -1813.761352539063 1129.1494140625 -1811.551391601563 1126.7041015625 C -1809.379516601563 1124.302001953125 -1807.431518554688 1121.674438476563 -1805.761596679688 1118.894653320313 C -1804.105590820313 1116.140991210938 -1802.706787109375 1113.212280273438 -1801.603881835938 1110.190063476563 C -1800.501220703125 1107.169799804688 -1799.684326171875 1104.029541015625 -1799.176025390625 1100.856567382813 C -1798.6640625 1097.654296875 -1798.462524414063 1094.393188476563 -1798.576904296875 1091.163940429688 C -1798.694091796875 1087.873413085938 -1799.140747070313 1084.581298828125 -1799.904296875 1081.37890625 C -1800.687744140625 1078.094360351563 -1801.81494140625 1074.862548828125 -1803.254638671875 1071.773315429688 C -1807.37255859375 1062.9443359375 -1813.900512695313 1055.564331054688 -1822.1328125 1050.43115234375 C -1826.103759765625 1047.954223632813 -1830.403198242188 1046.041870117188 -1834.911743164063 1044.746948242188 C -1839.439697265625 1043.446044921875 -1844.119384765625 1042.786376953125 -1848.820556640625 1042.786376953125 Z M -2125.329833984375 1163.413208007813 L -2124.422607421875 1163.155029296875 L -2124.403564453125 1163.291381835938 L -2125.329833984375 1163.413208007813 Z M -1943.762451171875 1149.11865234375 C -1952.759521484375 1149.11865234375 -1961.029052734375 1143.851318359375 -1964.829956054688 1135.699462890625 C -1966.153198242188 1132.8623046875 -1966.880249023438 1129.84814453125 -1966.990966796875 1126.740356445313 C -1967.097900390625 1123.739135742188 -1966.62841796875 1120.778564453125 -1965.595703125 1117.940795898438 C -1964.563110351563 1115.103271484375 -1963.019653320313 1112.533569335938 -1961.008422851563 1110.302612304688 C -1958.926513671875 1107.993286132813 -1956.43212890625 1106.1513671875 -1953.59423828125 1104.827758789063 C -1950.490234375 1103.380615234375 -1947.192016601563 1102.646362304688 -1943.791137695313 1102.645385742188 C -1934.793823242188 1102.645385742188 -1926.523803710938 1107.912353515625 -1922.722534179688 1116.063720703125 C -1921.3994140625 1118.901489257813 -1920.67236328125 1121.915893554688 -1920.561767578125 1125.023315429688 C -1920.454833984375 1128.024780273438 -1920.924194335938 1130.985473632813 -1921.95703125 1133.823120117188 C -1922.989990234375 1136.661254882813 -1924.533447265625 1139.231079101563 -1926.544311523438 1141.461303710938 C -1928.626342773438 1143.770751953125 -1931.120849609375 1145.61279296875 -1933.958618164063 1146.936279296875 C -1937.062744140625 1148.383422851563 -1940.361328125 1149.11767578125 -1943.762573242188 1149.11865234375 L -1943.762451171875 1149.11865234375 Z M -1848.66845703125 1120.76318359375 C -1859.358520507813 1120.76318359375 -1869.184204101563 1114.50537109375 -1873.70068359375 1104.820556640625 C -1875.272583007813 1101.44921875 -1876.13623046875 1097.867553710938 -1876.267700195313 1094.17529296875 C -1876.39453125 1090.608764648438 -1875.836547851563 1087.091186523438 -1874.609375 1083.72021484375 C -1873.38232421875 1080.3486328125 -1871.548583984375 1077.295288085938 -1869.159057617188 1074.644897460938 C -1866.684936523438 1071.900756835938 -1863.720947265625 1069.712280273438 -1860.349731445313 1068.140258789063 C -1856.662475585938 1066.420654296875 -1852.743774414063 1065.54833984375 -1848.702514648438 1065.547485351563 C -1838.013061523438 1065.547485351563 -1828.18701171875 1071.805786132813 -1823.669677734375 1081.4912109375 C -1817.23779296875 1095.284057617188 -1823.22705078125 1111.738647460938 -1837.020629882813 1118.171142578125 C -1840.710205078125 1119.890991210938 -1844.629150390625 1120.76318359375 -1848.66845703125 1120.76318359375 Z"/>
      <path class="cls-5" d="M -1706.232666015625 1289.765625 C -1701.27001953125 1289.765625 -1697.232788085938 1285.728271484375 -1697.232788085938 1280.765747070313 L -1697.232788085938 973.9998168945313 C -1697.232788085938 969.0372314453125 -1701.27001953125 964.9999389648438 -1706.232666015625 964.9999389648438 L -2252.999755859375 964.9999389648438 C -2257.96240234375 964.9999389648438 -2261.999755859375 969.0372314453125 -2261.999755859375 973.9998168945313 L -2261.999755859375 1280.765747070313 C -2261.999755859375 1285.728271484375 -2257.96240234375 1289.765625 -2252.999755859375 1289.765625 L -1706.232666015625 1289.765625 M -2125.610595703125 1164.51611328125 L -2144.443115234375 1169.562133789063 L -2145.4091796875 1169.820922851563 L -2145.66796875 1168.85498046875 L -2151.608642578125 1146.6806640625 L -2151.867431640625 1145.714721679688 L -2150.901611328125 1145.455932617188 L -2132.0693359375 1140.410034179688 L -2159.502685546875 1038.029052734375 L -2159.761474609375 1037.063110351563 L -2158.79541015625 1036.804321289063 L -2136.621337890625 1030.862426757813 L -2135.655517578125 1030.603637695313 L -2135.396728515625 1031.569580078125 L -2107.96337890625 1133.950561523438 L -2045.353393554688 1117.173828125 L -2072.785888671875 1014.792785644531 L -2073.044677734375 1013.826965332031 L -2072.07861328125 1013.568115234375 L -2049.904541015625 1007.626342773438 L -2048.938720703125 1007.367431640625 L -2048.679931640625 1008.333374023438 L -2020.987548828125 1111.681396484375 L -2015.046752929688 1133.855712890625 L -1999.49609375 1191.88818359375 L -1787.036987304688 1134.960205078125 L -1786.071166992188 1134.701416015625 L -1785.812255859375 1135.667358398438 L -1779.870239257813 1157.841430664063 L -1779.611328125 1158.807373046875 L -1780.577392578125 1159.066162109375 L -1994.003540039063 1216.253051757813 L -2016.177612304688 1222.194702148438 L -2017.1435546875 1222.453491210938 L -2017.402465820313 1221.487548828125 L -2038.893920898438 1141.279907226563 L -2101.504638671875 1158.056762695313 L -2080.01318359375 1238.263671875 L -2079.75439453125 1239.2294921875 L -2080.720458984375 1239.488403320313 L -2102.89453125 1245.430053710938 L -2103.8603515625 1245.688842773438 L -2104.119140625 1244.722900390625 L -2125.610595703125 1164.51611328125 M -1943.89111328125 1082.768310546875 C -1939.868408203125 1082.768310546875 -1935.863037109375 1083.333129882813 -1931.986083984375 1084.447143554688 C -1928.129150390625 1085.554931640625 -1924.449096679688 1087.191772460938 -1921.04833984375 1089.3125 C -1914.000122070313 1093.707397460938 -1908.412231445313 1100.0244140625 -1904.888793945313 1107.580688476563 C -1903.657348632813 1110.220825195313 -1902.6923828125 1112.9873046875 -1902.0205078125 1115.803344726563 C -1901.366943359375 1118.545288085938 -1900.984741210938 1121.363159179688 -1900.88427734375 1124.179077148438 C -1900.786376953125 1126.94580078125 -1900.959106445313 1129.737548828125 -1901.3974609375 1132.476684570313 C -1901.83154296875 1135.190551757813 -1902.530517578125 1137.878051757813 -1903.474975585938 1140.464721679688 C -1904.419921875 1143.053344726563 -1905.6171875 1145.56005859375 -1907.033081054688 1147.915283203125 C -1908.463500976563 1150.295166015625 -1910.131103515625 1152.544311523438 -1911.989379882813 1154.60009765625 C -1913.880126953125 1156.692260742188 -1915.989624023438 1158.606079101563 -1918.259521484375 1160.287841796875 C -1920.583251953125 1162.010498046875 -1923.105102539063 1163.510986328125 -1925.755737304688 1164.747924804688 C -1928.654907226563 1166.098876953125 -1931.69091796875 1167.127197265625 -1934.779174804688 1167.80419921875 C -1937.786865234375 1168.464721679688 -1940.8759765625 1168.799682617188 -1943.96044921875 1168.799682617188 C -1947.980590820313 1168.799682617188 -1951.985473632813 1168.235229492188 -1955.863647460938 1167.121826171875 C -1959.721313476563 1166.013549804688 -1963.4013671875 1164.376586914063 -1966.801513671875 1162.25634765625 C -1973.848022460938 1157.8623046875 -1979.435913085938 1151.544799804688 -1982.9609375 1143.986938476563 C -1984.193115234375 1141.345336914063 -1985.158081054688 1138.579223632813 -1985.829223632813 1135.765380859375 C -1986.483154296875 1133.021118164063 -1986.865112304688 1130.202758789063 -1986.964599609375 1127.38916015625 C -1987.063232421875 1124.623291015625 -1986.890869140625 1121.831787109375 -1986.452270507813 1119.091796875 C -1986.01708984375 1116.375122070313 -1985.318115234375 1113.687377929688 -1984.37451171875 1111.10302734375 C -1983.430297851563 1108.517211914063 -1982.233032226563 1106.010498046875 -1980.815795898438 1103.652709960938 C -1979.386352539063 1101.2734375 -1977.719116210938 1099.0244140625 -1975.860229492188 1096.968627929688 C -1973.967163085938 1094.874389648438 -1971.857666015625 1092.960571289063 -1969.590209960938 1091.280029296875 C -1967.261962890625 1089.554931640625 -1964.739868164063 1088.0546875 -1962.094116210938 1086.821166992188 C -1959.202270507813 1085.47216796875 -1956.166381835938 1084.443481445313 -1953.070190429688 1083.763549804688 C -1950.057983398438 1083.103149414063 -1946.969604492188 1082.768310546875 -1943.89111328125 1082.768310546875 M -1848.820556640625 1042.286376953125 C -1844.072631835938 1042.286376953125 -1839.346557617188 1042.952514648438 -1834.773681640625 1044.266357421875 C -1830.220581054688 1045.574096679688 -1825.878540039063 1047.505493164063 -1821.868286132813 1050.0068359375 C -1813.553588867188 1055.19140625 -1806.96044921875 1062.64501953125 -1802.801391601563 1071.562133789063 C -1801.347534179688 1074.681762695313 -1800.209106445313 1077.945556640625 -1799.41796875 1081.262939453125 C -1798.646606445313 1084.497436523438 -1798.195678710938 1087.822631835938 -1798.077270507813 1091.146240234375 C -1797.961669921875 1094.40771484375 -1798.165283203125 1097.701293945313 -1798.682373046875 1100.935668945313 C -1799.195678710938 1104.14013671875 -1800.020629882813 1107.311401367188 -1801.134155273438 1110.361450195313 C -1802.248046875 1113.41357421875 -1803.660766601563 1116.371337890625 -1805.3330078125 1119.151977539063 C -1807.01953125 1121.959594726563 -1808.986938476563 1124.61328125 -1811.180419921875 1127.039428710938 C -1813.412475585938 1129.50927734375 -1815.901489257813 1131.76708984375 -1818.578125 1133.750244140625 C -1821.324462890625 1135.785888671875 -1824.300537109375 1137.55615234375 -1827.42333984375 1139.012084960938 C -1830.840698242188 1140.605590820313 -1834.422729492188 1141.8193359375 -1838.070068359375 1142.61962890625 C -1841.619018554688 1143.397827148438 -1845.263793945313 1143.79296875 -1848.9033203125 1143.7939453125 C -1853.64697265625 1143.7939453125 -1858.372192382813 1143.127807617188 -1862.947631835938 1141.81396484375 C -1867.499755859375 1140.505859375 -1871.841918945313 1138.574584960938 -1875.853759765625 1136.073486328125 C -1884.16845703125 1130.887817382813 -1890.761352539063 1123.433837890625 -1894.919555664063 1114.517456054688 C -1896.374389648438 1111.396850585938 -1897.513061523438 1108.133056640625 -1898.30419921875 1104.81640625 C -1899.075561523438 1101.581787109375 -1899.5263671875 1098.2568359375 -1899.643798828125 1094.93408203125 C -1899.759765625 1091.6669921875 -1899.55615234375 1088.373046875 -1899.038818359375 1085.143920898438 C -1898.527099609375 1081.9443359375 -1897.702392578125 1078.773193359375 -1896.587768554688 1075.718627929688 C -1895.473510742188 1072.667114257813 -1894.060913085938 1069.709228515625 -1892.388916015625 1066.927124023438 C -1890.699951171875 1064.117797851563 -1888.732666015625 1061.464111328125 -1886.541625976563 1059.039794921875 C -1884.309692382813 1056.5712890625 -1881.82080078125 1054.313354492188 -1879.143798828125 1052.328735351563 C -1876.396850585938 1050.29296875 -1873.4208984375 1048.522827148438 -1870.298583984375 1047.067260742188 C -1866.883178710938 1045.474975585938 -1863.300903320313 1044.26123046875 -1859.651000976563 1043.459716796875 C -1856.100830078125 1042.68115234375 -1852.456909179688 1042.286376953125 -1848.820556640625 1042.286376953125 M -1943.762451171875 1148.61865234375 L -1943.7626953125 1148.61865234375 C -1940.434936523438 1148.617797851563 -1937.207397460938 1147.899169921875 -1934.169921875 1146.483154296875 C -1931.393188476563 1145.188110351563 -1928.952514648438 1143.385864257813 -1926.915771484375 1141.126586914063 C -1924.947998046875 1138.944213867188 -1923.437744140625 1136.429565429688 -1922.426879882813 1133.652221679688 C -1921.416259765625 1130.875122070313 -1920.956787109375 1127.977905273438 -1921.061401367188 1125.041137695313 C -1921.169677734375 1122.0009765625 -1921.880981445313 1119.051635742188 -1923.175659179688 1116.275024414063 C -1926.895263671875 1108.299072265625 -1934.9873046875 1103.145385742188 -1943.791015625 1103.145385742188 C -1947.118408203125 1103.146362304688 -1950.345581054688 1103.864868164063 -1953.382934570313 1105.281005859375 C -1956.15966796875 1106.575927734375 -1958.600341796875 1108.378173828125 -1960.637084960938 1110.637451171875 C -1962.60498046875 1112.820434570313 -1964.115234375 1115.335083007813 -1965.125854492188 1118.111694335938 C -1966.136474609375 1120.888793945313 -1966.595825195313 1123.786010742188 -1966.491333007813 1126.722534179688 C -1966.383056640625 1129.762939453125 -1965.671508789063 1132.712036132813 -1964.376708984375 1135.488159179688 C -1960.657592773438 1143.464721679688 -1952.566040039063 1148.61865234375 -1943.762451171875 1148.61865234375 M -1848.66845703125 1120.26318359375 C -1844.70263671875 1120.26318359375 -1840.854858398438 1119.406860351563 -1837.232055664063 1117.717895507813 C -1823.688110351563 1111.401977539063 -1817.807373046875 1095.245483398438 -1824.122802734375 1081.702514648438 C -1828.558349609375 1072.192504882813 -1838.20654296875 1066.047485351563 -1848.702392578125 1066.047485351563 C -1852.670166015625 1066.04833984375 -1856.517700195313 1066.904907226563 -1860.138427734375 1068.593505859375 C -1863.448608398438 1070.136962890625 -1866.358764648438 1072.28564453125 -1868.787719726563 1074.979858398438 C -1871.134033203125 1077.582153320313 -1872.934692382813 1080.580322265625 -1874.139526367188 1083.89111328125 C -1875.344604492188 1087.201538085938 -1875.892578125 1090.655639648438 -1875.767944335938 1094.157470703125 C -1875.639038085938 1097.782470703125 -1874.791015625 1101.298828125 -1873.247436523438 1104.609252929688 C -1868.812866210938 1114.11865234375 -1859.1650390625 1120.26318359375 -1848.66845703125 1120.26318359375 M -1706.232666015625 1290.765625 L -2252.999755859375 1290.765625 C -2258.513671875 1290.765625 -2262.999755859375 1286.27978515625 -2262.999755859375 1280.765747070313 L -2262.999755859375 973.9998168945313 C -2262.999755859375 968.4859008789063 -2258.513671875 963.9999389648438 -2252.999755859375 963.9999389648438 L -1706.232666015625 963.9999389648438 C -1700.71875 963.9999389648438 -1696.232788085938 968.4859008789063 -1696.232788085938 973.9998168945313 L -1696.232788085938 1280.765747070313 C -1696.232788085938 1286.27978515625 -1700.71875 1290.765625 -1706.232666015625 1290.765625 Z M -2124.903564453125 1163.291259765625 L -2103.1533203125 1244.464111328125 L -2080.979248046875 1238.5224609375 L -2102.7294921875 1157.349609375 L -2038.186767578125 1140.05517578125 L -2016.4365234375 1221.228759765625 L -1994.262329101563 1215.287109375 L -1780.836181640625 1158.100219726563 L -1786.778198242188 1135.926147460938 L -2000.203247070313 1193.112915039063 L -2016.0126953125 1134.114501953125 L -2021.953491210938 1111.940185546875 L -2049.645751953125 1008.592224121094 L -2071.81982421875 1014.533996582031 L -2044.128662109375 1117.880981445313 L -2108.67041015625 1135.175415039063 L -2136.362548828125 1031.828369140625 L -2158.53662109375 1037.770263671875 L -2130.844482421875 1141.1171875 L -2150.642822265625 1146.421875 L -2144.701904296875 1168.59619140625 L -2124.904541015625 1163.291625976563 L -2124.903564453125 1163.291381835938 L -2124.9033203125 1163.292358398438 L -2124.903564453125 1163.291381835938 L -2124.903564453125 1163.291259765625 Z M -1943.89111328125 1083.768310546875 C -1946.897583007813 1083.768310546875 -1949.913818359375 1084.095336914063 -1952.856079101563 1084.740356445313 C -1955.88037109375 1085.404541015625 -1958.84619140625 1086.409545898438 -1961.67138671875 1087.727416992188 C -1964.25634765625 1088.9326171875 -1966.720336914063 1090.398193359375 -1968.994873046875 1092.08349609375 C -1971.20947265625 1093.724853515625 -1973.269653320313 1095.593994140625 -1975.118408203125 1097.63916015625 C -1976.933837890625 1099.647094726563 -1978.562377929688 1101.843627929688 -1979.958618164063 1104.167724609375 C -1981.343017578125 1106.470947265625 -1982.5126953125 1108.919677734375 -1983.435180664063 1111.446044921875 C -1984.35693359375 1113.970581054688 -1985.039794921875 1116.59619140625 -1985.46484375 1119.249877929688 C -1985.893188476563 1121.926147460938 -1986.0615234375 1124.652709960938 -1985.965209960938 1127.353515625 C -1985.8681640625 1130.101196289063 -1985.4951171875 1132.853393554688 -1984.8564453125 1135.533569335938 C -1984.200927734375 1138.281860351563 -1983.25830078125 1140.983764648438 -1982.0546875 1143.564208984375 C -1978.61181640625 1150.946044921875 -1973.154418945313 1157.116333007813 -1966.272338867188 1161.40771484375 C -1962.950805664063 1163.47900390625 -1959.355834960938 1165.078125 -1955.587524414063 1166.16064453125 C -1951.798950195313 1167.248291015625 -1947.886962890625 1167.799682617188 -1943.96044921875 1167.799682617188 C -1940.9482421875 1167.799682617188 -1937.931396484375 1167.47265625 -1934.99365234375 1166.827514648438 C -1931.976318359375 1166.166015625 -1929.01025390625 1165.161254882813 -1926.178100585938 1163.841430664063 C -1923.588623046875 1162.633056640625 -1921.124755859375 1161.167114257813 -1918.85498046875 1159.484497070313 C -1916.63818359375 1157.841918945313 -1914.577880859375 1155.973022460938 -1912.731323242188 1153.9296875 C -1910.916259765625 1151.921752929688 -1909.287475585938 1149.724975585938 -1907.890258789063 1147.400146484375 C -1906.507080078125 1145.099609375 -1905.337524414063 1142.650756835938 -1904.414306640625 1140.121826171875 C -1903.491821289063 1137.59521484375 -1902.808959960938 1134.969970703125 -1902.384887695313 1132.31884765625 C -1901.956787109375 1129.643676757813 -1901.7880859375 1126.9169921875 -1901.883666992188 1124.21435546875 C -1901.981689453125 1121.464965820313 -1902.35498046875 1118.713134765625 -1902.993286132813 1116.03515625 C -1903.6494140625 1113.284912109375 -1904.592041015625 1110.582641601563 -1905.795166015625 1108.00341796875 C -1909.236572265625 1100.623046875 -1914.693969726563 1094.453247070313 -1921.577392578125 1090.161010742188 C -1924.899291992188 1088.089599609375 -1928.494140625 1086.490478515625 -1932.26220703125 1085.408203125 C -1936.049194335938 1084.320068359375 -1939.961791992188 1083.768310546875 -1943.89111328125 1083.768310546875 Z M -1848.820556640625 1043.286376953125 C -1852.384765625 1043.286376953125 -1855.956665039063 1043.67333984375 -1859.436767578125 1044.4365234375 C -1863.014282226563 1045.22216796875 -1866.526489257813 1046.412109375 -1869.8759765625 1047.9736328125 C -1872.938110351563 1049.401123046875 -1875.85595703125 1051.136840820313 -1878.54833984375 1053.132202148438 C -1881.171508789063 1055.076782226563 -1883.611328125 1057.289916992188 -1885.7998046875 1059.71044921875 C -1887.947509765625 1062.086791992188 -1889.876098632813 1064.688232421875 -1891.531860351563 1067.4423828125 C -1893.171020507813 1070.169799804688 -1894.556030273438 1073.069702148438 -1895.6484375 1076.061645507813 C -1896.741333007813 1079.056640625 -1897.549682617188 1082.165405273438 -1898.051391601563 1085.301879882813 C -1898.558471679688 1088.46728515625 -1898.758056640625 1091.696044921875 -1898.64453125 1094.898681640625 C -1898.529296875 1098.155395507813 -1898.087524414063 1101.414184570313 -1897.331420898438 1104.58447265625 C -1896.555908203125 1107.835815429688 -1895.439453125 1111.03564453125 -1894.01318359375 1114.094848632813 C -1889.937133789063 1122.835205078125 -1883.474731445313 1130.141967773438 -1875.324584960938 1135.224975585938 C -1871.391845703125 1137.6767578125 -1867.134765625 1139.5703125 -1862.671508789063 1140.852783203125 C -1858.185791015625 1142.140869140625 -1853.553466796875 1142.7939453125 -1848.9033203125 1142.7939453125 C -1845.335815429688 1142.79296875 -1841.76318359375 1142.405639648438 -1838.284301757813 1141.642822265625 C -1834.708862304688 1140.858276367188 -1831.196899414063 1139.668334960938 -1827.845947265625 1138.105712890625 C -1824.783935546875 1136.67822265625 -1821.866088867188 1134.942504882813 -1819.173583984375 1132.946899414063 C -1816.549194335938 1131.00244140625 -1814.109619140625 1128.789184570313 -1811.92236328125 1126.368896484375 C -1809.772338867188 1123.990966796875 -1807.84375 1121.3896484375 -1806.190185546875 1118.637084960938 C -1804.550415039063 1115.910278320313 -1803.165405273438 1113.010620117188 -1802.073608398438 1110.018676757813 C -1800.981811523438 1107.028198242188 -1800.173095703125 1103.919067382813 -1799.669799804688 1100.777465820313 C -1799.162963867188 1097.607177734375 -1798.96337890625 1094.378784179688 -1799.07666015625 1091.181640625 C -1799.192626953125 1087.923828125 -1799.634765625 1084.664794921875 -1800.390625 1081.494873046875 C -1801.166381835938 1078.24267578125 -1802.282470703125 1075.04296875 -1803.707885742188 1071.984497070313 C -1807.78466796875 1063.243774414063 -1814.247314453125 1055.937377929688 -1822.3974609375 1050.855346679688 C -1826.329223632813 1048.402954101563 -1830.586059570313 1046.509521484375 -1835.049682617188 1045.2275390625 C -1839.532470703125 1043.939575195313 -1844.165771484375 1043.286376953125 -1848.820556640625 1043.286376953125 Z M -1943.762451171875 1149.61865234375 C -1952.953002929688 1149.61865234375 -1961.400390625 1144.237915039063 -1965.283081054688 1135.910766601563 C -1966.634765625 1133.0126953125 -1967.377563476563 1129.933349609375 -1967.49072265625 1126.758178710938 C -1967.599853515625 1123.692260742188 -1967.120361328125 1120.668212890625 -1966.065551757813 1117.769775390625 C -1965.010864257813 1114.871826171875 -1963.434326171875 1112.246826171875 -1961.379760742188 1109.967895507813 C -1959.252685546875 1107.6083984375 -1956.704345703125 1105.7265625 -1953.805541992188 1104.374633789063 C -1950.634887695313 1102.896362304688 -1947.265502929688 1102.146362304688 -1943.791259765625 1102.145385742188 C -1934.600341796875 1102.145385742188 -1926.152465820313 1107.525634765625 -1922.269409179688 1115.852416992188 C -1920.917724609375 1118.751342773438 -1920.175048828125 1121.830932617188 -1920.06201171875 1125.005493164063 C -1919.952758789063 1128.071655273438 -1920.432250976563 1131.095703125 -1921.487182617188 1133.994140625 C -1922.542114257813 1136.892578125 -1924.118530273438 1139.517578125 -1926.172973632813 1141.796142578125 C -1928.300170898438 1144.155639648438 -1930.848510742188 1146.037475585938 -1933.747314453125 1147.389404296875 C -1936.917846679688 1148.867553710938 -1940.287475585938 1149.61767578125 -1943.762451171875 1149.61865234375 Z M -1848.66845703125 1121.26318359375 C -1859.552124023438 1121.26318359375 -1869.5556640625 1114.891967773438 -1874.15380859375 1105.031860351563 C -1875.754150390625 1101.599609375 -1876.633544921875 1097.953002929688 -1876.767333984375 1094.193115234375 C -1876.896484375 1090.562377929688 -1876.32861328125 1086.981201171875 -1875.079223632813 1083.549072265625 C -1873.830078125 1080.11669921875 -1871.963134765625 1077.00830078125 -1869.530395507813 1074.310180664063 C -1867.011108398438 1071.515869140625 -1863.993408203125 1069.28759765625 -1860.56103515625 1067.687133789063 C -1856.807006835938 1065.936401367188 -1852.817260742188 1065.04833984375 -1848.70263671875 1065.047485351563 C -1837.819580078125 1065.047485351563 -1827.815673828125 1071.419067382813 -1823.216552734375 1081.27978515625 C -1816.668090820313 1095.322631835938 -1822.765747070313 1112.0751953125 -1836.809326171875 1118.624267578125 C -1840.565795898438 1120.375366210938 -1844.555786132813 1121.26318359375 -1848.66845703125 1121.26318359375 Z"/>
    </g>
  </g>
</svg>
